<svg width="26" height="26" viewBox="0 0 26 26" fill="none" xmlns="http://www.w3.org/2000/svg">
<circle cx="13" cy="13" r="12.5" fill="#ffffff" stroke="#00875c"/>
<path d="M10.868 15.14H7.22L6.548 17H5.396L8.42 8.684H9.68L12.692 17H11.54L10.868 15.14ZM10.556 14.252L9.044 10.028L7.532 14.252H10.556ZM18.4139 17L16.4219 13.58H15.1019V17H14.0099V8.636H16.7099C17.3419 8.636 17.8739 8.744 18.3059 8.96C18.7459 9.176 19.0739 9.468 19.2899 9.836C19.5059 10.204 19.6139 10.624 19.6139 11.096C19.6139 11.672 19.4459 12.18 19.1099 12.62C18.7819 13.06 18.2859 13.352 17.6219 13.496L19.7219 17H18.4139ZM15.1019 12.704H16.7099C17.3019 12.704 17.7459 12.56 18.0419 12.272C18.3379 11.976 18.4859 11.584 18.4859 11.096C18.4859 10.6 18.3379 10.216 18.0419 9.944C17.7539 9.672 17.3099 9.536 16.7099 9.536H15.1019V12.704Z" fill="black" fill-opacity="0.6"/>
</svg>
